<mxfile host="app.diagrams.net" modified="2023-11-23T13:59:38.978Z" agent="Mozilla/5.0 (Windows NT 10.0; Win64; x64) AppleWebKit/537.36 (KHTML, like Gecko) Chrome/116.0.5845.833 YaBrowser/23.9.4.833 Yowser/2.5 Safari/537.36" etag="CSxe02XjuNZsEGY-l5cI" version="21.7.2" type="onedrive">
  <diagram name="Страница — 1" id="dbDYh2LWrucgkwsMzz3S">
    <mxGraphModel grid="1" page="1" gridSize="10" guides="1" tooltips="1" connect="1" arrows="1" fold="1" pageScale="1" pageWidth="827" pageHeight="1169" math="0" shadow="0">
      <root>
        <mxCell id="0" />
        <mxCell id="1" parent="0" />
        <mxCell id="EHgYleoc0wG1EBn8XQmc-4" style="edgeStyle=orthogonalEdgeStyle;rounded=0;orthogonalLoop=1;jettySize=auto;html=1;" edge="1" parent="1" source="EHgYleoc0wG1EBn8XQmc-2" target="EHgYleoc0wG1EBn8XQmc-3">
          <mxGeometry relative="1" as="geometry" />
        </mxCell>
        <mxCell id="EHgYleoc0wG1EBn8XQmc-2" value="&lt;div style=&quot;font-family: Consolas, &amp;quot;Courier New&amp;quot;, monospace; font-size: 14px; line-height: 19px;&quot;&gt;&lt;div style=&quot;line-height: 19px;&quot;&gt;&lt;div style=&quot;line-height: 19px;&quot;&gt;FromArrayToArray&lt;/div&gt;&lt;/div&gt;&lt;/div&gt;" style="rounded=1;whiteSpace=wrap;html=1;labelBackgroundColor=none;fontColor=#000000;" vertex="1" parent="1">
          <mxGeometry x="152.5" y="50" width="160" height="60" as="geometry" />
        </mxCell>
        <mxCell id="EHgYleoc0wG1EBn8XQmc-6" style="edgeStyle=orthogonalEdgeStyle;rounded=0;orthogonalLoop=1;jettySize=auto;html=1;entryX=0.5;entryY=0;entryDx=0;entryDy=0;" edge="1" parent="1" source="EHgYleoc0wG1EBn8XQmc-3" target="EHgYleoc0wG1EBn8XQmc-5">
          <mxGeometry relative="1" as="geometry" />
        </mxCell>
        <mxCell id="EHgYleoc0wG1EBn8XQmc-3" value="&lt;div style=&quot;font-family: Consolas, &amp;quot;Courier New&amp;quot;, monospace; font-size: 14px; line-height: 19px;&quot;&gt;string[] &lt;span style=&quot;&quot;&gt;array1&lt;/span&gt;&lt;/div&gt;&lt;div style=&quot;font-family: Consolas, &amp;quot;Courier New&amp;quot;, monospace; font-size: 14px; line-height: 19px;&quot;&gt;string[]&amp;nbsp;&lt;span style=&quot;border-color: var(--border-color);&quot;&gt;array2&lt;/span&gt;&lt;br&gt;&lt;/div&gt;&lt;div style=&quot;font-family: Consolas, &amp;quot;Courier New&amp;quot;, monospace; font-size: 14px; line-height: 19px;&quot;&gt;&lt;span style=&quot;border-color: var(--border-color);&quot;&gt;int count = 0&lt;/span&gt;&lt;/div&gt;" style="shape=parallelogram;perimeter=parallelogramPerimeter;whiteSpace=wrap;html=1;fixedSize=1;labelBackgroundColor=default;fontColor=#000000;" vertex="1" parent="1">
          <mxGeometry x="142.5" y="170" width="180" height="90" as="geometry" />
        </mxCell>
        <mxCell id="EHgYleoc0wG1EBn8XQmc-8" style="edgeStyle=orthogonalEdgeStyle;rounded=0;orthogonalLoop=1;jettySize=auto;html=1;entryX=0.5;entryY=0;entryDx=0;entryDy=0;" edge="1" parent="1" source="EHgYleoc0wG1EBn8XQmc-5" target="EHgYleoc0wG1EBn8XQmc-7">
          <mxGeometry relative="1" as="geometry" />
        </mxCell>
        <mxCell id="EHgYleoc0wG1EBn8XQmc-5" value="&lt;div style=&quot;font-family: Consolas, &amp;quot;Courier New&amp;quot;, monospace; font-size: 14px; line-height: 19px;&quot;&gt;for (&lt;span style=&quot;&quot;&gt;int&lt;/span&gt; &lt;span style=&quot;&quot;&gt;i&lt;/span&gt; = &lt;span style=&quot;&quot;&gt;0&lt;/span&gt;; &lt;span style=&quot;&quot;&gt;i&lt;/span&gt; &amp;lt; &lt;span style=&quot;&quot;&gt;array1&lt;/span&gt;.Length; &lt;span style=&quot;&quot;&gt;i&lt;/span&gt;++)&lt;/div&gt;" style="shape=hexagon;perimeter=hexagonPerimeter2;whiteSpace=wrap;html=1;fixedSize=1;strokeColor=#000000;fillColor=#FFFFFF;fontColor=#000000;labelBackgroundColor=none;" vertex="1" parent="1">
          <mxGeometry x="70" y="320" width="325" height="100" as="geometry" />
        </mxCell>
        <mxCell id="EHgYleoc0wG1EBn8XQmc-10" style="edgeStyle=orthogonalEdgeStyle;rounded=0;orthogonalLoop=1;jettySize=auto;html=1;entryX=0.504;entryY=1.078;entryDx=0;entryDy=0;entryPerimeter=0;" edge="1" parent="1" source="EHgYleoc0wG1EBn8XQmc-7" target="EHgYleoc0wG1EBn8XQmc-9">
          <mxGeometry relative="1" as="geometry" />
        </mxCell>
        <mxCell id="EHgYleoc0wG1EBn8XQmc-12" value="YES" style="edgeLabel;html=1;align=center;verticalAlign=middle;resizable=0;points=[];" connectable="0" vertex="1" parent="EHgYleoc0wG1EBn8XQmc-10">
          <mxGeometry x="-0.2776" y="-1" relative="1" as="geometry">
            <mxPoint as="offset" />
          </mxGeometry>
        </mxCell>
        <mxCell id="EHgYleoc0wG1EBn8XQmc-13" style="edgeStyle=orthogonalEdgeStyle;rounded=0;orthogonalLoop=1;jettySize=auto;html=1;entryX=0;entryY=0.5;entryDx=0;entryDy=0;" edge="1" parent="1" source="EHgYleoc0wG1EBn8XQmc-7" target="EHgYleoc0wG1EBn8XQmc-5">
          <mxGeometry relative="1" as="geometry">
            <Array as="points">
              <mxPoint x="50" y="515" />
              <mxPoint x="50" y="370" />
            </Array>
          </mxGeometry>
        </mxCell>
        <mxCell id="EHgYleoc0wG1EBn8XQmc-14" value="NO" style="edgeLabel;html=1;align=center;verticalAlign=middle;resizable=0;points=[];" connectable="0" vertex="1" parent="EHgYleoc0wG1EBn8XQmc-13">
          <mxGeometry x="-0.7379" relative="1" as="geometry">
            <mxPoint x="1" as="offset" />
          </mxGeometry>
        </mxCell>
        <mxCell id="EHgYleoc0wG1EBn8XQmc-7" value="&lt;div style=&quot;font-family: Consolas, &amp;quot;Courier New&amp;quot;, monospace; font-size: 14px; line-height: 19px;&quot;&gt;if(&lt;span style=&quot;&quot;&gt;array1&lt;/span&gt;[&lt;span style=&quot;&quot;&gt;i&lt;/span&gt;].Length &amp;lt;= &lt;span style=&quot;&quot;&gt;3&lt;/span&gt;)&lt;/div&gt;" style="rhombus;whiteSpace=wrap;html=1;labelBackgroundColor=default;fontColor=#000000;" vertex="1" parent="1">
          <mxGeometry x="102.5" y="470" width="260" height="90" as="geometry" />
        </mxCell>
        <mxCell id="EHgYleoc0wG1EBn8XQmc-11" style="edgeStyle=orthogonalEdgeStyle;rounded=0;orthogonalLoop=1;jettySize=auto;html=1;entryX=1;entryY=0.5;entryDx=0;entryDy=0;" edge="1" parent="1" source="EHgYleoc0wG1EBn8XQmc-9" target="EHgYleoc0wG1EBn8XQmc-5">
          <mxGeometry relative="1" as="geometry" />
        </mxCell>
        <mxCell id="EHgYleoc0wG1EBn8XQmc-9" value="&lt;div style=&quot;font-family: Consolas, &amp;quot;Courier New&amp;quot;, monospace; font-size: 14px; line-height: 19px;&quot;&gt;&lt;div&gt;array2[&lt;span style=&quot;&quot;&gt;count&lt;/span&gt;] = &lt;span style=&quot;&quot;&gt;array1&lt;/span&gt;[&lt;span style=&quot;&quot;&gt;i&lt;/span&gt;];&lt;/div&gt;&lt;div&gt;&amp;nbsp;&lt;span style=&quot;&quot;&gt;count&lt;/span&gt;++;&lt;/div&gt;&lt;/div&gt;" style="rounded=0;whiteSpace=wrap;html=1;labelBackgroundColor=default;fontColor=#000000;" vertex="1" parent="1">
          <mxGeometry x="490" y="325" width="230" height="90" as="geometry" />
        </mxCell>
      </root>
    </mxGraphModel>
  </diagram>
</mxfile>
